<?xml version="1.0" encoding="UTF-8" standalone="no"?>
<!-- Created with Inkscape (http://www.inkscape.org/) -->

<svg
   width="2000"
   height="500"
   viewBox="0 0 529.16664 132.29167"
   version="1.1"
   id="svg1"
   inkscape:version="1.4.2 (f4327f4, 2025-05-13)"
   sodipodi:docname="Questions.myexams.net Logo.svg"
   xmlns:inkscape="http://www.inkscape.org/namespaces/inkscape"
   xmlns:sodipodi="http://sodipodi.sourceforge.net/DTD/sodipodi-0.dtd"
   xmlns="http://www.w3.org/2000/svg"
   xmlns:svg="http://www.w3.org/2000/svg">
  <sodipodi:namedview
     id="namedview1"
     pagecolor="#ffffff"
     bordercolor="#000000"
     borderopacity="0.25"
     inkscape:showpageshadow="false"
     inkscape:pageopacity="0.0"
     inkscape:pagecheckerboard="0"
     inkscape:deskcolor="#d1d1d1"
     inkscape:document-units="mm"
     showborder="false"
     borderlayer="true"
     inkscape:zoom="0.7071068"
     inkscape:cx="984.29261"
     inkscape:cy="355.6747"
     inkscape:window-width="2304"
     inkscape:window-height="1465"
     inkscape:window-x="1912"
     inkscape:window-y="492"
     inkscape:window-maximized="1"
     inkscape:current-layer="layer1" />
  <defs
     id="defs1">
    <inkscape:path-effect
       effect="fillet_chamfer"
       id="path-effect25"
       is_visible="true"
       lpeversion="1"
       nodesatellites_param="F,0,0,1,0,0,0,1 @ F,0,0,1,0,0,0,1 @ F,0,0,1,0,0,0,1 @ F,0,0,1,0,2.844472,0,1 @ F,0,1,1,0,0.42695995,0,1 @ F,0,0,1,0,0,0,1 @ F,0,0,1,0,0,0,1 @ F,0,0,1,0,0,0,1 @ F,0,0,1,0,0,0,1 @ F,0,0,1,0,0,0,1 @ F,0,0,1,0,0,0,1 @ F,0,0,1,0,0,0,1 @ F,0,0,1,0,0.42695995,0,1 @ F,0,0,1,0,0,0,1 @ F,0,0,1,0,7.8276403,0,1 @ F,0,0,1,0,0,0,1 @ F,0,0,1,0,0,0,1 @ F,0,0,1,0,0,0,1 @ F,0,0,1,0,0,0,1 @ F,0,0,1,0,0,0,1 @ F,0,0,1,0,0,0,1 @ F,0,0,1,0,0,0,1 @ F,0,0,1,0,0,0,1 @ F,0,0,1,0,0,0,1 @ F,0,0,1,0,0,0,1"
       radius="0"
       unit="px"
       method="auto"
       mode="F"
       chamfer_steps="1"
       flexible="false"
       use_knot_distance="true"
       apply_no_radius="true"
       apply_with_radius="true"
       only_selected="false"
       hide_knots="false" />
    <inkscape:path-effect
       effect="fillet_chamfer"
       id="path-effect24"
       is_visible="true"
       lpeversion="1"
       nodesatellites_param="F,0,0,1,0,1.8289994,0,1 @ F,0,1,1,0,1.8289994,0,1 @ F,0,0,1,0,7.9001064,0,1 @ F,0,0,1,0,7.9001064,0,1"
       radius="0"
       unit="px"
       method="auto"
       mode="F"
       chamfer_steps="1"
       flexible="false"
       use_knot_distance="true"
       apply_no_radius="true"
       apply_with_radius="true"
       only_selected="false"
       hide_knots="false" />
    <inkscape:path-effect
       effect="fillet_chamfer"
       id="path-effect19"
       is_visible="true"
       lpeversion="1"
       nodesatellites_param="F,0,0,1,0,0,0,1 @ F,0,0,1,0,0,0,1 @ F,0,0,1,0,0,0,1 @ F,0,0,1,0,1.8224087,0,1 @ F,0,0,1,0,0,0,1 @ F,0,0,1,0,0,0,1 @ F,0,0,1,0,0,0,1 @ F,0,0,1,0,0,0,1 @ F,0,0,1,0,0,0,1 @ F,0,0,1,0,0,0,1 @ F,0,0,1,0,0,0,1 @ F,0,0,1,0,0,0,1 @ F,0,0,1,0,0,0,1 @ F,0,0,1,0,0,0,1 @ F,0,0,1,0,7.0387449,0,1 @ F,0,0,1,0,0,0,1 @ F,0,0,1,0,0,0,1 @ F,0,0,1,0,0,0,1 @ F,0,0,1,0,0,0,1 @ F,0,0,1,0,0,0,1 @ F,0,0,1,0,0,0,1 @ F,0,0,1,0,0,0,1 @ F,0,0,1,0,0,0,1 @ F,0,0,1,0,0,0,1"
       radius="0"
       unit="px"
       method="auto"
       mode="F"
       chamfer_steps="1"
       flexible="false"
       use_knot_distance="true"
       apply_no_radius="true"
       apply_with_radius="true"
       only_selected="false"
       hide_knots="false" />
    <inkscape:path-effect
       effect="fillet_chamfer"
       id="path-effect18"
       nodesatellites_param="F,0,0,1,0,0,0,1 @ F,0,0,1,0,0,0,1 @ F,0,0,1,0,0,0,1 @ F,0,0,1,0,0,0,1"
       is_visible="true"
       lpeversion="1"
       radius="0"
       unit="px"
       method="auto"
       mode="F"
       chamfer_steps="1"
       flexible="false"
       use_knot_distance="true"
       apply_no_radius="true"
       apply_with_radius="true"
       only_selected="false"
       hide_knots="false" />
    <inkscape:path-effect
       effect="fillet_chamfer"
       id="path-effect9"
       is_visible="true"
       lpeversion="1"
       nodesatellites_param="F,0,0,1,0,0,0,1 @ F,0,0,1,0,5.8921755,0,1 @ F,0,1,1,0,0,0,1 @ F,0,0,1,0,0,0,1"
       radius="0"
       unit="px"
       method="auto"
       mode="F"
       chamfer_steps="1"
       flexible="false"
       use_knot_distance="true"
       apply_no_radius="true"
       apply_with_radius="true"
       only_selected="false"
       hide_knots="false" />
  </defs>
  <g
     inkscape:label="Layer 1"
     inkscape:groupmode="layer"
     id="layer1">
    <path
       id="path25"
       style="fill:#000055;stroke-width:0.264583"
       d="m 72.341984,6.1882528 c -27.61408,2.54e-4 -49.99956,22.3859722 -49.99953,50.0000492 -3e-5,27.614077 22.38545,49.999798 49.99953,50.000048 7.12389,0 14.09714,-1.52088 20.48196,-4.38785 1.43292,-0.64342 3.36401,-0.2503 4.35529,0.96842 l 3.077326,3.78375 a 0.46829862,0.46829862 0 0 1 -0.0357,0.62993 l -0.1018,0.0997 c -0.716306,0.70175 -0.936456,1.75406 -0.309026,2.53628 l 10.579196,13.18214 c 2.74555,3.42109 7.72529,4.01293 11.19622,1.33067 l 0.59428,-0.45889 c 3.43409,-2.65359 4.02398,-7.60791 1.30896,-10.99364 L 112.97258,99.76497 c -0.51149,-0.637788 -1.5075,-0.810188 -2.28978,-0.525549 -0.22114,0.08046 -0.49954,0.03722 -0.64441,-0.148829 l -4.37751,-5.621362 -3.92741,-4.783687 c -2.743316,-3.341144 -7.521276,-3.577909 -11.247886,-1.403532 -1.17367,0.684805 -2.38405,1.301737 -3.62459,1.848466 -4.53364,1.998068 -9.47278,3.057747 -14.51901,3.057694 -19.88215,-7.2e-5 -35.9998,-16.11772 -35.99987,-35.999869 -2.1e-4,-19.882351 16.11752,-36.000315 35.99987,-36.000387 19.88255,-2.1e-4 36.000466,16.117836 36.000386,36.000387 -1e-5,2.447863 -0.50232,5.465243 -0.69556,8.023282 -0.2324,3.076472 0.0651,5.766677 1.35702,7.38663 1.50862,1.891771 3.33368,2.916494 5.7366,2.632397 2.26046,-0.267254 4.43562,-1.956727 5.91075,-5.684407 0.99057,-2.503196 1.69083,-8.246235 1.69085,-12.357902 C 122.34206,28.57403 99.956254,6.1882307 72.341984,6.1882528 Z M 341.06873,29.278316 c -1.26999,-0.07055 -2.39909,0.211462 -3.38687,0.84646 -0.98777,0.564443 -1.7282,1.411012 -2.22209,2.539897 -0.49388,1.128885 -0.60003,2.434378 -0.31781,3.91604 0.35278,2.046105 1.23473,3.598233 2.64584,4.656563 1.48166,0.987775 3.31632,1.199546 5.50354,0.635104 1.4111,-0.423332 2.50483,-1.05813 3.28093,-1.904794 0.77611,-0.917219 1.23452,-1.905313 1.37563,-2.963643 0.21167,-1.05833 0.0353,-2.152051 -0.52917,-3.280937 -0.49388,-1.128885 -1.34045,-2.116462 -2.53989,-2.963126 -1.27,-0.91722 -2.54011,-1.411008 -3.81011,-1.481564 z m -38.33151,4.709274 c -0.26899,0 -0.5446,0.01795 -0.82682,0.05323 -1.05833,0.07056 -2.11667,0.528963 -3.175,1.375627 -0.77611,0.634998 -1.37552,1.552329 -1.79886,2.75177 -0.42333,1.128885 -0.74073,2.363615 -0.95239,3.704167 -0.14111,1.269996 -0.21188,2.574971 -0.21188,3.915523 0,1.269996 0.0354,2.328336 0.10594,3.175 0.0706,0.634998 0.10594,1.305693 0.10594,2.011247 0,0.634998 0.0349,1.305176 0.10542,2.01073 -2.04611,-0.07056 -4.23303,-0.07056 -6.56136,0 -2.32833,0 -4.12761,0.17639 -5.3976,0.529166 -0.91722,0.211666 -1.72841,0.705455 -2.43396,1.481564 -0.70556,0.705553 -1.23473,1.552122 -1.5875,2.539896 -0.28222,0.91722 -0.35299,1.905314 -0.21188,2.963644 0.21167,1.05833 0.70546,2.045907 1.48157,2.963126 0.49388,0.634998 1.30559,1.128787 2.43447,1.481564 1.12889,0.282221 2.32824,0.529374 3.59823,0.74104 1.34056,0.14111 2.64605,0.246738 3.91604,0.317293 h 3.28042 1.5875 c 0,3.809988 -0.0354,7.620322 -0.10593,11.43031 0,3.739433 -0.0349,7.090326 -0.10542,10.05365 0,0.917219 -0.0354,2.01094 -0.10594,3.280936 0,1.199441 0.0354,2.469553 0.10594,3.810104 0.14111,1.269996 0.35236,2.540107 0.63458,3.810103 0.28223,1.199441 0.70577,2.257774 1.27021,3.174994 0.77611,1.12889 2.04622,1.86983 3.8101,2.22261 1.83444,0.42333 3.84498,0.17618 6.03219,-0.74104 0.70556,-0.28222 1.23473,-0.88216 1.5875,-1.79938 0.35278,-0.98777 0.59993,-2.116354 0.74104,-3.38635 0.21167,-1.269996 0.3173,-2.575489 0.3173,-3.916041 v -3.704166 c 0.0705,-1.552218 0.10593,-3.280736 0.10593,-5.18573 0,-1.975549 -0.0354,-4.021467 -0.10593,-6.138127 -0.0706,-2.11666 -0.1408,-4.268721 -0.21136,-6.455936 -0.0705,-2.257771 -0.14132,-4.445214 -0.21187,-6.561874 0.84666,0 1.86962,-0.03486 3.06906,-0.10542 1.19944,-0.07056 2.39931,-0.176699 3.59875,-0.31781 1.26999,-0.14111 2.43396,-0.282119 3.49229,-0.42323 1.05833,-0.211666 1.9049,-0.458819 2.5399,-0.74104 1.19944,-0.493887 2.01114,-1.552227 2.43447,-3.175 0.49389,-1.622773 0.45851,-3.104138 -0.10593,-4.44469 -0.56445,-1.269996 -1.41101,-2.151946 -2.5399,-2.645833 -1.12888,-0.564443 -2.399,-0.917223 -3.8101,-1.058333 -1.34055,-0.141111 -2.71629,-0.176492 -4.1274,-0.105937 -1.41111,0.07055 -2.64584,0.105937 -3.70417,0.105937 h -1.05833 v -3.492811 c 0,-1.269996 -0.0354,-2.53959 -0.10594,-3.809586 0,-1.269996 -0.0708,-2.469345 -0.21187,-3.59823 -0.14111,-1.199441 -0.3175,-2.222916 -0.52917,-3.06958 -0.28222,-0.987775 -0.77601,-1.869725 -1.48156,-2.645833 -0.635,-0.846664 -1.44618,-1.481462 -2.43396,-1.904794 -0.68791,-0.317499 -1.43578,-0.476456 -2.24276,-0.476456 z m 38.22558,17.091979 c -0.98778,0 -1.93997,0.17639 -2.85719,0.529167 -0.91722,0.282221 -1.62278,0.705764 -2.11667,1.270207 -0.635,0.917219 -1.09392,2.081186 -1.37614,3.492293 -0.28222,1.340552 -0.45861,2.751671 -0.52917,4.233333 -0.0706,1.481663 -0.10594,2.928164 -0.10594,4.339271 0.0706,1.411106 0.10594,2.610455 0.10594,3.598229 v 5.715414 6.349483 c 0.0706,2.187215 0.10594,4.339277 0.10594,6.455937 0.0705,2.11666 0.10593,3.986704 0.10593,5.609477 0.14111,3.17499 0.67028,5.64445 1.5875,7.40833 0.98778,1.76388 2.57529,2.71608 4.7625,2.85719 1.48167,0.0706 2.64563,-0.21146 3.4923,-0.84646 0.91722,-0.70555 1.5874,-1.5875 2.01073,-2.64583 0.42333,-1.05833 0.70586,-2.187433 0.84697,-3.386874 0.14111,-1.269996 0.24674,-2.433963 0.3173,-3.492293 0.0706,-2.187215 0.10593,-4.551048 0.10593,-7.09104 V 77.64384 c 0,-2.681103 -0.0354,-5.25619 -0.10593,-7.725627 v -6.66781 c 0,-0.846664 -0.0354,-1.763479 -0.10594,-2.751253 0,-1.05833 -0.0702,-2.046424 -0.21136,-2.963644 -0.0705,-0.987774 -0.1767,-1.869724 -0.31781,-2.645833 -0.14111,-0.776109 -0.35236,-1.375525 -0.63458,-1.798857 -0.42333,-0.634998 -1.12889,-1.129303 -2.11667,-1.48208 -0.91722,-0.352777 -1.90531,-0.529167 -2.96364,-0.529167 z m 80.57699,0.870232 c -0.81028,0.01102 -1.63435,0.214975 -2.4722,0.611849 -1.27,0.564442 -2.18681,1.516638 -2.75125,2.85719 -0.635,1.481662 -0.95292,3.139934 -0.95292,4.974373 0.0706,1.834439 0.10594,3.562957 0.10594,5.18573 v 15.239897 6.561873 c 0.0706,1.975549 0.21156,4.127094 0.42323,6.45542 0.0706,0.776108 0.14132,1.623194 0.21187,2.540413 0.0706,0.846664 0.21157,1.693233 0.42323,2.539897 0.28223,0.846664 0.63501,1.657847 1.05834,2.433957 0.49388,0.70555 1.1292,1.27011 1.90531,1.69344 1.83444,0.98777 3.42195,1.16416 4.7625,0.52916 1.34055,-0.63499 2.29274,-1.79896 2.85719,-3.49229 0.635,-1.62277 0.95239,-3.704585 0.95239,-6.244577 V 86.427799 83.358736 80.81884 c 0.0706,-0.776109 0.10594,-1.552432 0.10594,-2.328541 v -2.539896 c -0.0705,-2.398882 0.74115,-4.339171 2.43448,-5.820834 1.69333,-1.552217 3.66848,-2.469031 5.92625,-2.751253 2.96332,-0.282221 5.29178,0.458203 6.9851,2.222087 1.76389,1.693328 2.64584,4.198169 2.64584,7.51427 -0.0706,1.411107 -0.0706,2.927854 0,4.550626 0.0706,1.622773 0.10593,3.104656 0.10593,4.445207 v 2.857707 c 0.0706,0.987775 0.10594,2.010733 0.10594,3.069063 l 0.21136,3.175 c 0.14111,0.987775 0.28212,1.869725 0.42323,2.645834 0.21166,0.987774 0.45882,1.869724 0.74104,2.64583 0.28222,0.77611 0.70576,1.41091 1.2702,1.90479 0.56445,0.49389 1.30487,0.81129 2.22209,0.9524 0.98778,0.21167 2.22251,0.14142 3.70417,-0.21136 1.05833,-0.21166 1.79927,-0.74083 2.2226,-1.5875 0.49389,-0.91722 0.81129,-1.940172 0.9524,-3.069057 0.21166,-1.199441 0.31781,-2.399306 0.31781,-3.598747 0,-1.199441 0.0354,-2.257781 0.10593,-3.175 0.35278,-4.444986 0.35278,-8.924982 0,-13.440523 -0.0705,-1.552217 -0.14131,-3.068965 -0.21187,-4.550627 -0.0706,-1.552217 -0.24694,-3.069481 -0.52917,-4.551143 -0.21166,-1.481662 -0.59982,-2.892782 -1.16427,-4.233333 -0.49388,-1.411107 -1.23482,-2.751464 -2.2226,-4.02146 -1.76388,-2.11666 -3.98619,-3.739552 -6.66729,-4.868437 -2.61055,-1.199441 -5.2564,-1.799374 -7.9375,-1.799374 -0.56445,0 -1.37563,0.106145 -2.43396,0.317811 -0.98778,0.211666 -2.04612,0.564446 -3.175,1.058333 -1.12889,0.493887 -2.22261,1.128685 -3.28094,1.904793 -1.05833,0.776109 -1.94028,1.799067 -2.64583,3.069063 l -0.21188,-2.751253 c -0.0706,-0.987774 -0.28181,-1.83486 -0.63458,-2.540413 -0.28222,-0.776109 -0.77653,-1.446287 -1.48208,-2.01073 -0.70556,-0.564443 -1.69313,-0.952604 -2.96313,-1.16427 -0.47625,-0.132291 -0.95767,-0.194717 -1.44384,-0.188102 z m -166.72522,0.188102 c -2.04611,0.07055 -4.05664,0.423335 -6.03219,1.058333 -1.905,0.564443 -3.6689,1.411528 -5.29167,2.540414 -1.62277,1.05833 -2.92826,2.434068 -3.91604,4.127396 -1.83444,3.245546 -2.54,6.490811 -2.11667,9.736357 0.49389,3.17499 2.18755,5.856221 5.08031,8.043437 1.34056,0.987774 2.82192,1.764097 4.44469,2.32854 1.62278,0.493887 3.28105,0.952294 4.97438,1.375626 1.76388,0.423332 3.45702,0.881739 5.07979,1.375627 1.69333,0.493887 3.21059,1.164583 4.55114,2.011247 0.98778,0.705553 1.44619,1.728512 1.37563,3.069063 -0.0705,1.269996 -0.88174,2.398582 -2.43396,3.386356 -1.05833,0.634998 -2.32844,0.952914 -3.8101,0.952914 -1.41111,0 -2.89299,-0.211771 -4.44521,-0.635103 -1.55222,-0.423332 -3.10435,-0.987884 -4.65656,-1.693437 -1.55222,-0.776109 -2.89258,-1.552432 -4.02146,-2.32854 -1.41111,-0.91722 -2.68122,-1.163855 -3.81011,-0.740523 -1.12888,0.423332 -2.01083,1.199137 -2.64583,2.328023 -0.56444,1.05833 -0.84646,2.328441 -0.84646,3.810103 0.0706,1.411107 0.59973,2.681218 1.5875,3.810104 1.41111,1.622772 3.13963,2.963129 5.18573,4.02146 2.11666,1.05833 4.30359,1.83465 6.56136,2.32854 2.32832,0.49388 4.65677,0.74104 6.9851,0.74104 2.39888,0 4.62119,-0.21177 6.66729,-0.63511 2.82222,-0.63499 5.25681,-1.90511 7.30292,-3.810097 2.11666,-1.904994 3.59802,-4.092437 4.44469,-6.561874 0.84666,-2.469436 0.98767,-4.973761 0.42323,-7.513753 -0.49389,-2.539992 -1.90501,-4.762816 -4.23334,-6.66781 -1.19944,-0.987775 -2.57518,-1.76358 -4.12739,-2.328023 -1.48166,-0.564443 -3.03379,-1.058231 -4.65657,-1.481563 -1.55221,-0.423332 -3.13972,-0.846875 -4.7625,-1.270207 -1.62277,-0.423332 -3.10465,-0.987883 -4.4452,-1.693437 -1.48166,-0.776108 -2.46924,-1.69344 -2.96313,-2.75177 -0.42333,-1.05833 -0.45871,-2.045907 -0.10594,-2.963126 0.42334,-0.91722 1.16428,-1.693543 2.22261,-2.328541 1.05833,-0.634998 2.39868,-0.917015 4.02146,-0.846459 1.05833,0 2.04642,0.17639 2.96364,0.529166 0.98778,0.352777 1.93997,0.77632 2.85719,1.270207 0.91722,0.493887 1.83455,0.952295 2.75177,1.375627 0.91722,0.423332 1.90531,0.74073 2.96364,0.952396 0.91722,0.141111 1.76379,0.07086 2.5399,-0.211356 0.84666,-0.282222 1.51684,-0.705764 2.01073,-1.270207 0.56444,-0.564443 0.91722,-1.270003 1.05833,-2.116667 0.21167,-0.846664 0.17629,-1.728614 -0.10593,-2.645833 -0.42333,-1.411107 -1.12889,-2.575074 -2.11667,-3.492293 -0.91722,-0.987775 -1.97556,-1.799479 -3.175,-2.434477 -1.12888,-0.634998 -2.36361,-1.128787 -3.70417,-1.481563 -1.34055,-0.423332 -2.61066,-0.740731 -3.8101,-0.952397 -1.83444,-0.282221 -3.77473,-0.388366 -5.82083,-0.31781 z m 231.03396,0 c -2.04611,0.07055 -4.05716,0.423335 -6.03271,1.058333 -1.90499,0.564443 -3.66889,1.411528 -5.29167,2.540414 -1.62277,1.05833 -2.92826,2.434068 -3.91604,4.127396 -1.83443,3.245546 -2.53999,6.490811 -2.11666,9.736357 0.49388,3.17499 2.18754,5.856221 5.08031,8.043437 1.34055,0.987774 2.82191,1.764097 4.44469,2.32854 1.62277,0.493887 3.28104,0.952294 4.97437,1.375626 1.76388,0.423332 3.45702,0.881739 5.07979,1.375627 1.69333,0.493887 3.2106,1.164583 4.55115,2.011247 0.98777,0.705553 1.44618,1.728512 1.37562,3.069063 -0.0706,1.269996 -0.88174,2.398582 -2.43396,3.386356 -1.05833,0.634998 -2.32844,0.952914 -3.8101,0.952914 -1.41111,0 -2.89299,-0.211771 -4.44521,-0.635103 -1.55221,-0.423332 -3.10434,-0.987884 -4.65656,-1.693437 -1.55222,-0.776109 -2.89257,-1.552432 -4.02146,-2.32854 -1.41111,-0.91722 -2.68122,-1.163855 -3.8101,-0.740523 -1.12889,0.423332 -2.01084,1.199137 -2.64584,2.328023 -0.56444,1.05833 -0.84646,2.328441 -0.84646,3.810103 0.0706,1.411107 0.59973,2.681218 1.5875,3.810104 1.41111,1.622772 3.13963,2.963129 5.18573,4.02146 2.11666,1.05833 4.30359,1.83465 6.56136,2.32854 2.32833,0.49388 4.65678,0.74104 6.9851,0.74104 2.39889,0 4.62171,-0.21177 6.66781,-0.63511 2.82222,-0.63499 5.2563,-1.90511 7.3024,-3.810097 2.11666,-1.904994 3.59803,-4.092437 4.44469,-6.561874 0.84666,-2.469436 0.98767,-4.973761 0.42323,-7.513753 -0.49389,-2.539992 -1.90501,-4.762816 -4.23333,-6.66781 -1.19944,-0.987775 -2.57518,-1.76358 -4.1274,-2.328023 -1.48166,-0.564443 -3.03379,-1.058231 -4.65656,-1.481563 -1.55222,-0.423332 -3.13973,-0.846875 -4.7625,-1.270207 -1.62278,-0.423332 -3.10414,-0.987883 -4.44469,-1.693437 -1.48166,-0.776108 -2.46976,-1.69344 -2.96365,-2.75177 -0.42333,-1.05833 -0.45871,-2.045907 -0.10593,-2.963126 0.42333,-0.91722 1.16427,-1.693543 2.2226,-2.328541 1.05833,-0.634998 2.3992,-0.917015 4.02198,-0.846459 1.05833,0 2.0459,0.17639 2.96312,0.529166 0.98778,0.352777 1.94049,0.77632 2.85771,1.270207 0.91722,0.493887 1.83403,0.952295 2.75125,1.375627 0.91722,0.423332 1.90532,0.74073 2.96365,0.952396 0.91722,0.141111 1.76379,0.07086 2.53989,-0.211356 0.84667,-0.282222 1.51685,-0.705764 2.01073,-1.270207 0.56445,-0.564443 0.91723,-1.270003 1.05834,-2.116667 0.21166,-0.846664 0.17628,-1.728614 -0.10594,-2.645833 -0.42333,-1.411107 -1.12889,-2.575074 -2.11667,-3.492293 -0.91722,-0.987775 -1.97556,-1.799479 -3.175,-2.434477 -1.12888,-0.634998 -2.36361,-1.128787 -3.70416,-1.481563 -1.34055,-0.423332 -2.61015,-0.740731 -3.80959,-0.952397 -1.83444,-0.282221 -3.77473,-0.388366 -5.82083,-0.31781 z m -348.74667,0.264583 c -0.97014,0.03528 -1.98438,0.335244 -3.04271,0.899687 -0.98778,0.493887 -1.69334,1.234829 -2.11667,2.222603 -0.42333,0.91722 -0.74073,1.940178 -0.9524,3.069064 -0.14111,1.128885 -0.21135,2.293369 -0.21135,3.49281 v 3.069063 c -0.28222,4.727207 -0.28222,9.524602 0,14.39292 0.0705,1.834438 0.21156,3.81011 0.42323,5.92677 0.21166,2.11666 0.59982,4.163094 1.16427,6.138643 0.635,1.97555 1.48156,3.809695 2.53989,5.503023 1.05833,1.693329 2.43407,3.069061 4.1274,4.127391 1.69333,1.05833 3.59824,1.87004 5.7149,2.43448 2.11666,0.635 4.3041,0.98778 6.56187,1.05833 2.25777,0.0706 4.51546,-0.10583 6.77323,-0.52916 2.25777,-0.35278 4.37445,-1.02296 6.35,-2.01073 2.25777,-1.05833 3.98629,-2.46945 5.18573,-4.233334 1.27,-1.763883 2.18733,-3.739554 2.75177,-5.92677 0.635,-2.187215 1.02316,-4.444904 1.16427,-6.77323 0.14111,-2.398881 0.28212,-4.762714 0.42323,-7.09104 0.0706,-1.834438 0.10594,-3.774728 0.10594,-5.820833 0.0705,-2.11666 0.0705,-4.162577 0,-6.138127 -0.0706,-2.046104 -0.21208,-3.916148 -0.42375,-5.609477 -0.14111,-1.763883 -0.42313,-3.209867 -0.84646,-4.338753 -0.42333,-1.269996 -1.19965,-2.187327 -2.32854,-2.75177 -1.12888,-0.564442 -2.32823,-0.811595 -3.59823,-0.74104 -1.27,0 -2.46934,0.317399 -3.59823,0.952397 -1.12888,0.634998 -1.86983,1.587711 -2.2226,2.857707 -0.28222,0.917219 -0.494,2.257576 -0.63511,4.021459 -0.0705,1.693329 -0.10542,3.563373 -0.10542,5.609477 0,1.97555 0.0349,3.986085 0.10542,6.03219 0.0706,2.046105 0.10594,3.916149 0.10594,5.609477 0,3.880543 -0.28202,6.808411 -0.84646,8.78396 -0.49389,1.975549 -1.55223,3.210279 -3.175,3.704167 -3.45721,0.987774 -6.06768,0.952393 -7.83156,-0.105937 -1.69333,-1.128886 -2.92806,-2.786641 -3.70417,-4.973857 -0.70555,-2.187215 -1.09371,-4.656675 -1.16427,-7.408333 -0.0705,-2.822213 -0.14132,-5.432682 -0.21187,-7.831563 -0.14111,-1.622773 -0.21136,-3.422054 -0.21136,-5.397604 0.0706,-1.975549 -2.1e-4,-3.77483 -0.21187,-5.397603 -0.35278,-3.104435 -1.4465,-5.150352 -3.28094,-6.138127 -0.88194,-0.493887 -1.80799,-0.723608 -2.77812,-0.68833 z m 244.26312,0.238229 c -1.25235,0.05292 -2.51375,0.203158 -3.78375,0.450101 -2.53999,0.493888 -4.97407,1.305075 -7.30239,2.43396 -2.96333,1.411107 -5.53893,3.457024 -7.72615,6.138127 -2.11666,2.610547 -3.73903,6.03272 -4.86792,10.26604 -1.05833,3.951099 -1.30548,7.831679 -0.74104,11.641667 0.635,3.739432 1.90511,7.090842 3.81011,10.054166 1.97555,2.963324 4.55063,5.397403 7.72562,7.302394 3.24555,1.90499 6.98512,2.96333 11.21844,3.175 2.32833,0.21167 4.72702,0.10604 7.19646,-0.31729 2.46944,-0.35278 4.76251,-1.02347 6.87917,-2.01125 1.62277,-0.77611 3.14003,-1.76369 4.55114,-2.963124 1.48166,-1.269996 2.71639,-2.681116 3.70417,-4.233333 2.0461,-3.386656 3.49209,-7.055465 4.33875,-11.006563 0.84666,-3.951099 0.67027,-7.86706 -0.52917,-11.747604 -0.56444,-2.187215 -1.44639,-4.409522 -2.64583,-6.667293 -1.19944,-2.328326 -2.61056,-4.303997 -4.23333,-5.92677 -1.97555,-1.904994 -4.16248,-3.386877 -6.56136,-4.445207 -2.32833,-1.05833 -4.7624,-1.728508 -7.3024,-2.01073 -1.23471,-0.14111 -2.47816,-0.185208 -3.73052,-0.132291 z m -176.82073,0.979268 c -3.9511,0.07055 -7.51428,1.022751 -10.68927,2.85719 -2.61055,1.552217 -4.86824,3.633516 -6.77323,6.244063 -1.83444,2.539992 -3.13993,5.856538 -3.91604,9.948747 -0.70555,3.386656 -0.88194,6.984702 -0.52917,10.79469 0.35278,3.809988 1.4465,7.267025 3.28094,10.37146 1.97555,3.17499 4.69216,5.46806 8.14937,6.879167 3.52777,1.34055 7.19658,2.08149 11.00657,2.2226 2.82221,0.14111 5.53831,-0.0353 8.14885,-0.52917 2.68111,-0.49388 5.04494,-1.19944 7.09104,-2.11666 0.70556,-0.28222 1.4465,-0.635002 2.22261,-1.058334 0.77611,-0.493887 1.48167,-1.058439 2.11666,-1.693437 0.635,-0.634998 1.16417,-1.340558 1.5875,-2.116666 0.42334,-0.776109 0.63459,-1.587296 0.63459,-2.43396 0,-1.199441 -0.24664,-2.116772 -0.74052,-2.75177 -0.49389,-0.705554 -1.1292,-1.199342 -1.90531,-1.481563 -0.70556,-0.282222 -1.51674,-0.387849 -2.43396,-0.317294 -0.84667,0.07056 -1.69324,0.211564 -2.5399,0.42323 -2.32833,0.705554 -4.58601,1.340351 -6.77323,1.904793 -2.18721,0.493888 -4.48028,0.670278 -6.87917,0.529167 -1.26999,-0.07055 -2.57548,-0.282327 -3.91604,-0.635103 -1.34055,-0.352777 -2.5399,-0.846566 -3.59823,-1.481564 -1.05833,-0.705553 -1.90489,-1.552121 -2.53989,-2.539896 -0.56445,-1.05833 -0.74084,-2.29306 -0.52917,-3.704167 2.04611,0.07056 3.88025,0.141318 5.50302,0.211874 1.69333,0 3.31622,0.03486 4.86844,0.105419 h 4.55114 c 1.48167,0 3.06918,-0.03486 4.7625,-0.105419 1.905,-0.07056 3.52737,-0.141318 4.86792,-0.211874 1.41111,-0.14111 2.61046,-0.388263 3.59823,-0.74104 0.98778,-0.352777 1.79948,-0.881947 2.43448,-1.5875 0.635,-0.705553 1.16417,-1.69313 1.5875,-2.963126 0.28222,-0.776109 0.45861,-1.658059 0.52917,-2.645834 0.0705,-0.987774 0.0705,-1.975352 0,-2.963126 -0.0706,-1.05833 -0.21157,-2.046424 -0.42323,-2.963644 -0.14111,-0.917219 -0.35288,-1.693025 -0.63511,-2.328023 -0.98777,-2.539992 -2.43427,-4.692053 -4.33927,-6.455937 -1.90499,-1.834438 -4.05705,-3.28094 -6.45593,-4.33927 -3.59832,-1.622772 -7.37276,-2.398578 -11.32386,-2.328023 z m 2.32802,10.688753 c 1.27,-0.07055 2.46987,0.141216 3.59875,0.635104 1.48166,0.705553 2.89278,1.834656 4.23333,3.386873 0.70556,0.776109 1.19935,1.51705 1.48157,2.222603 0.28222,0.634998 0.45861,1.446186 0.52916,2.43396 h -20.74343 c -0.28222,0 -0.35299,-0.247153 -0.21188,-0.74104 0.14111,-0.493887 0.35289,-1.023057 0.63511,-1.5875 0.35277,-0.564443 0.70555,-1.093613 1.05833,-1.5875 0.35278,-0.564443 0.59993,-0.917223 0.74104,-1.058333 1.41111,-1.622773 3.13963,-2.681113 5.18573,-3.175 1.12889,-0.352777 2.29285,-0.529167 3.49229,-0.529167 z m 175.5774,2.32854 c 1.69333,0 3.28084,0.35278 4.7625,1.058334 1.55222,0.634998 2.75157,1.657956 3.59823,3.069063 1.19944,1.975549 1.83424,4.162992 1.90479,6.561873 0.0706,2.398882 -0.35247,4.621189 -1.26969,6.667294 -0.84666,2.046104 -2.11677,3.774623 -3.8101,5.185729 -1.69333,1.340552 -3.669,1.940485 -5.92677,1.799374 -1.97555,-0.141111 -3.88046,-0.564654 -5.7149,-1.270207 -1.83443,-0.705553 -3.10455,-1.587503 -3.8101,-2.645833 -0.84666,-1.269996 -1.48146,-2.681116 -1.90479,-4.233334 -0.35278,-1.622772 -0.45892,-3.210282 -0.31781,-4.7625 0.14111,-1.622772 0.49389,-3.174901 1.05833,-4.656563 0.56444,-1.481662 1.37615,-2.716392 2.43448,-3.704166 1.12888,-1.05833 2.50462,-1.834136 4.12739,-2.328024 1.62278,-0.564442 3.24567,-0.811595 4.86844,-0.74104 z" />
  </g>
</svg>
